<?xml version="1.0" encoding="utf-8"?>
<!-- Generator: Adobe Illustrator 25.2.0, SVG Export Plug-In . SVG Version: 6.00 Build 0)  -->
<svg version="1.1" id="Слой_1" xmlns="http://www.w3.org/2000/svg" xmlns:xlink="http://www.w3.org/1999/xlink" x="0px" y="0px"
	 viewBox="0 0 3000 2000" style="enable-background:new 0 0 3000 2000;" xml:space="preserve">
<style type="text/css">
	.st0{fill:#FFFFFF;}
	.st1{fill:#EBF3FA;}
	.st2{fill:#A8D29F;}
	.st3{fill:#82B378;}
	.st4{fill:#C7DCFB;}
	.st5{fill:#DFEBFD;}
	.st6{fill:#FFB27D;}
	.st7{fill:#233862;}
	.st8{fill:#C65447;}
	.st9{fill:#F99746;}
	.st10{fill:#ED7D2B;}
	.st11{fill:#2B478B;}
	.st12{fill:#ED985F;}
	.st13{fill:#2C3A64;}
	.st14{fill:#2E3552;}
</style>
<rect class="st0" width="3000" height="2000"/>
<g>
	<g>
		<path class="st1" d="M395.4,1266.17c0,0-259.93-279.34-43.96-581.77c191.62-268.34,415.04-249.99,578.95-141.1
			c69.81,46.38,271.09,5.72,442.41-267.33c233.63-372.35,1043.46-146.52,895.81,426.36c-71.46,277.23,217.47,287.31,70.25,564.43
			L395.4,1266.17z"/>
		<path class="st2" d="M894.56,726.14c0,0-128.59-183.21-178.84-159.46C665.47,590.43,894.56,726.14,894.56,726.14z"/>
		<path class="st2" d="M886.39,676.91c0,0-19.64-137.76-50.61-132.35C804.82,549.96,886.39,676.91,886.39,676.91z"/>
		<g>
			<path class="st3" d="M777.67,1106.27c0,0,12.36-61.3-35.64-69c0,0-32.56-1.14-51.72,11.15c0,0,54.44,31.46,47.97,41.24
				c-6.47,9.78-58.14-39.43-58.14-39.43s-58.36,25.59-71.39,44.12c0,0,68.96,12.3,60.29,20.18c-8.68,7.88-81.04-1.58-81.04-1.58
				s-46.63,37.59-26.32,67.52c20.31,29.93,43.49,29.71,50.82,24.51c7.34-5.2,43.25-48.17,47.81-42.32
				c4.57,5.84-11.24,42.12-29.93,53.86c0,0,58.71,19.79,76.39-5.29c17.68-25.07,9.5-44.57,20.71-59.87
				c11.21-15.3,24.07-22.46,21.77-11.97c-2.3,10.49-25.73,32.54-25.83,52.59c-0.1,20.05-2.09,34.65,20.79,16.92
				c22.88-17.73,53.27-58.73,43.36-80.68C777.67,1106.27,777.67,1106.27,777.67,1106.27z"/>
			<g>
				<path class="st3" d="M587.47,1167.15c0,0,136.94-83.66,190.2-60.88c0,0,18.27,16.67,49.72,23.56l8.27,7.11
					c0,0-38.54-12.03-48.08-8.73C787.58,1128.21,773.45,1070.99,587.47,1167.15z"/>
				<path class="st3" d="M827.39,1129.83c0,0,42.45,5.44,66.71,44l-5.18,3.54c0,0-32.52-35.72-58.83-42.08
					C803.79,1128.92,827.39,1129.83,827.39,1129.83z"/>
			</g>
		</g>
		<g>
			<path class="st2" d="M819.59,927.41c0,0,99.44-55.74,53.03-131.38c0,0-37.12-46.45-76.9-58.39c0,0,21.21,112.8,0,115.45
				c-21.21,2.65-14.58-127.4-14.58-127.4S676.4,675.26,635.3,679.25c0,0,64.97,110.15,43.75,107.49
				c-21.21-2.65-94.13-114.13-94.13-114.13S477.53,652.7,460.29,716.4c-17.24,63.7,10.61,95.55,26.52,99.53
				c15.91,3.98,118,2.65,115.35,15.92c-2.65,13.27-71.59,34.5-110.04,22.56c0,0,42.43,104.84,98.11,99.53
				c55.68-5.31,72.92-39.81,107.39-42.47c34.47-2.65,59.66,6.64,42.43,15.93c-17.24,9.29-75.57,3.04-103.41,26.74
				c-27.84,23.69-50.38,38.29,1.33,48.91c51.71,10.62,144.51,3.98,163.08-35.83C819.59,927.41,819.59,927.41,819.59,927.41z"/>
			<g>
				<path class="st3" d="M509.35,736.31c0,0,278.42,90.24,310.24,191.1c0,0-1.33,45.12,26.52,96.88v19.91
					c0,0-29.17-67.68-45.08-76.97C801.03,967.22,863.34,879.63,509.35,736.31z"/>
				<path class="st3" d="M846.1,1024.28c0,0,42.94,65.26,18.46,144.71l-11.05-2.97c0,0,10.72-87.5-11.74-131.51
					C819.31,990.5,846.1,1024.28,846.1,1024.28z"/>
			</g>
		</g>
		<g>
			<path class="st4" d="M1909.6,681.46c0,0-66.92-42.73-31.64-93.48c0,0,27.67-30.81,55.8-37.53c0,0-19.25,77.59-4.6,80.28
				c14.65,2.69,15.22-88.01,15.22-88.01s74.84-30.88,103.26-26.47c0,0-49.57,74-34.71,73c14.86-1,70.01-75.6,70.01-75.6
				s75.47-9.55,84.92,35.43c9.44,44.98-11.19,66.02-22.41,68.15c-11.22,2.13-82.16-2.87-80.84,6.46
				c1.32,9.33,48.41,26.85,75.62,20.08c0,0-33.68,71.21-72.19,65.29c-38.51-5.92-49.12-30.6-72.98-33.82
				c-23.86-3.22-41.75,2.23-30.14,9.38c11.61,7.15,52.43,5.14,70.84,22.72c18.42,17.59,33.51,28.64-2.87,33.95
				c-36.38,5.32-100.65-3.01-111.97-31.43C1909.6,681.46,1909.6,681.46,1909.6,681.46z"/>
			<g>
				<path class="st4" d="M2132.95,560.98c0,0-197.2,51.63-223.35,120.49c0,0-0.88,31.43-22.3,66.3l-0.79,13.84
					c0,0,22.98-45.9,34.42-51.72C1920.92,709.89,1881.09,646.49,2132.95,560.98z"/>
				<path class="st4" d="M1887.3,747.77c0,0-32.46,43.67-18.61,99.89l7.8-1.62c0,0-3.97-61.27,13.41-90.98
					C1907.28,725.35,1887.3,747.77,1887.3,747.77z"/>
			</g>
		</g>
		<g>
			<path class="st5" d="M1729.42,495.99c0,0-102.82-22.6-82.05-101.91c0,0,20.38-51.02,52.34-72.24c0,0,11.45,105.4,30.91,102.06
				c19.46-3.34-21.21-116.53-21.21-116.53s79.09-72.67,116.48-80.17c0,0-27.94,114.79-9.9,106.76
				c18.04-8.04,52.66-126.13,52.66-126.13s89.6-46.4,121.89,5.29c32.29,51.69,16.2,87.31,3.21,95.09c-13,7.79-103.6,34-97.7,45.01
				c5.9,11.02,72.52,11.3,103.32-9.57c0,0-9.44,104.05-60.08,114.3c-50.64,10.24-75.12-15.63-106.3-8.73
				c-31.18,6.9-50.96,21.87-33.24,25.46c17.72,3.59,67.62-17.58,98.57-4.1c30.95,13.48,54.79,20.33,11.92,43.59
				c-42.86,23.25-126.68,42.28-153.75,12.07C1729.42,495.99,1729.42,495.99,1729.42,495.99z"/>
			<g>
				<path class="st5" d="M1952.51,243.85c0,0-221.96,154.45-223.09,252.14c0,0,13.25,39.53,2.5,92.75l5.33,17.6
					c0,0,7.67-67.65,19.24-80.13C1756.49,526.21,1677.96,465.49,1952.51,243.85z"/>
				<path class="st5" d="M1731.92,588.74c0,0-20.48,69.21,22.42,132.87l8.97-5.59c0,0-32.9-74.47-24.83-119.4
					C1746.56,551.69,1731.92,588.74,1731.92,588.74z"/>
			</g>
		</g>
		<g>
			<path class="st0" d="M1088.09,584.42h-43.23c-3.54,0-6.44-2.9-6.44-6.44l0,0c0-3.54,2.9-6.44,6.44-6.44h43.23
				c3.54,0,6.44,2.9,6.44,6.44l0,0C1094.53,581.52,1091.63,584.42,1088.09,584.42z"/>
			<path class="st0" d="M1206.72,584.42h-43.23c-3.54,0-6.44-2.9-6.44-6.44l0,0c0-3.54,2.9-6.44,6.44-6.44h43.23
				c3.54,0,6.44,2.9,6.44,6.44l0,0C1213.15,581.52,1210.26,584.42,1206.72,584.42z"/>
			<path class="st0" d="M1325.34,584.42h-43.23c-3.54,0-6.44-2.9-6.44-6.44l0,0c0-3.54,2.9-6.44,6.44-6.44h43.23
				c3.54,0,6.44,2.9,6.44,6.44l0,0C1331.78,581.52,1328.88,584.42,1325.34,584.42z"/>
			<path class="st0" d="M1443.96,584.42h-43.23c-3.54,0-6.44-2.9-6.44-6.44l0,0c0-3.54,2.9-6.44,6.44-6.44h43.23
				c3.54,0,6.44,2.9,6.44,6.44l0,0C1450.4,581.52,1447.51,584.42,1443.96,584.42z"/>
			<path class="st0" d="M1562.59,584.42h-43.23c-3.54,0-6.44-2.9-6.44-6.44l0,0c0-3.54,2.9-6.44,6.44-6.44h43.23
				c3.54,0,6.44,2.9,6.44,6.44l0,0C1569.03,581.52,1566.13,584.42,1562.59,584.42z"/>
			<path class="st0" d="M1681.21,584.42h-43.23c-3.54,0-6.44-2.9-6.44-6.44l0,0c0-3.54,2.9-6.44,6.44-6.44h43.23
				c3.54,0,6.44,2.9,6.44,6.44l0,0C1687.65,581.52,1684.75,584.42,1681.21,584.42z"/>
			<path class="st0" d="M1799.84,584.42h-43.23c-3.54,0-6.44-2.9-6.44-6.44l0,0c0-3.54,2.9-6.44,6.44-6.44h43.23
				c3.54,0,6.44,2.9,6.44,6.44l0,0C1806.28,581.52,1803.38,584.42,1799.84,584.42z"/>
		</g>
		<g>
			<path class="st6" d="M1776.03,678.92l-4.91-9.27c0,0,2.44-16.51-18.24-26.96c0,0-7.56-3.08-11.82,3.09
				c-3.93,5.68,7.49,4.65,6.88,14.37c-0.61,9.72,3.99,15.42,10.41,18.59l5.3,6.15L1776.03,678.92z"/>
			<path class="st7" d="M1971.4,656.77c0,0-17.75,87.22-115.45,115.71c-30.5,8.9-99.78-91.6-99.78-91.6s2.44-9.26,17.7-7.14
				c0,0,67.46,44.7,75.95,49.56c7.54,4.31,57.09-55.39,79.69-65.02C1952.1,648.65,1971.4,656.77,1971.4,656.77z"/>
			<g>
				
					<rect x="1730.11" y="601.85" transform="matrix(-0.182 -0.9833 0.9833 -0.182 1412.6394 2487.0813)" class="st8" width="21.52" height="108.15"/>
				<polygon class="st6" points="1662.97,670.37 1689.65,676.36 1685.74,655.2 				"/>
				<path class="st6" d="M1805.74,640.22l1.24,6.69c0.76,4.12-1.95,8.07-6.07,8.83l-4.92,0.91l-3.92-21.16l5.35-0.99
					C1801.3,633.78,1805.02,636.34,1805.74,640.22z"/>
			</g>
			<g>
				<path class="st7" d="M2088.04,1205.04c0,0,12.12,11.07,9.75,18.94c-2.36,7.87-13.3,13.11-14.78,22.72
					c-1.48,9.61-7.39,14.86-12.71,14.86c-5.32,0-25.37,0-25.37,0s-3.92-6.77,5.54-8.81c9.46-2.04,13.03-13.34,12.43-23.83
					c-0.59-10.49,0.89-24.47,0.89-24.47l20.1-4.66L2088.04,1205.04z"/>
				<path class="st7" d="M1939.35,1233.67c0,0,2.18,25.19-3.15,27.82l-68.09-0.14c0,0,0-7.87,10.94-9.61
					c10.94-1.75,30.15-8.16,33.4-22.43C1915.7,1215.03,1939.35,1233.67,1939.35,1233.67z"/>
				<path class="st9" d="M1881.86,877.77c0,0,3.59,44.16,7.81,97.25c5.74,72.12,12.64,160.7,13.32,177.48
					c1.18,29.14,5.91,75.75,5.91,75.75s11.23,11.07,33.7,6.41c0,0,20.02-66.54,25.74-136.94c0.09-1.15,0.18-2.32,0.27-3.48
					c5.32-71.67,13.59-222.59,13.59-222.59L1881.86,877.77z"/>
				<path class="st10" d="M1881.86,877.77c0,0,3.59,44.16,7.81,97.25l78.68,122.69c0.09-1.15,0.18-2.32,0.27-3.48
					c5.32-71.67,13.59-222.59,13.59-222.59L1881.86,877.77z"/>
				<path class="st9" d="M1898.26,883.01c0,0,64.74,159.95,107.3,235.11c42.57,75.17,55.87,96.14,55.87,96.14s24.39-9.61,26.6-16.17
					c0,0-16.28-145.11-44.78-180.49c-16.11-19.99-35.03-79.97-35.92-100.95c-0.89-20.98-5.76-62.49-5.76-62.49L1898.26,883.01z"/>
			</g>
			<path class="st6" d="M1983.44,636.52c0,0-43.8,21.15-69.05,13.31c0,0,6.22-7.85,17.09-13.69c-0.87-5.07-1.55-9.48-1.94-13.21
				c-1.07-8.62-1.07-13.5-1.07-13.5l16.9-13.3l16.03-12.73C1960.13,619.2,1983.44,636.52,1983.44,636.52z"/>
			<path class="st11" d="M1879.09,881.42c0.77,0.67,1.65,1.05,2.63,1.05c9.51-0.19,37.19,5.07,60.59,2.68
				c19.81-1.91,37.3-7.66,56.04-15.88c2.53-1.15,8.26-4.22,8.16-6.89c-0.1-3.06-0.39-7.37-0.77-12.93
				c-0.79-10.94-1.89-26.46-2.24-44.87c-0.26-13.65-0.11-28.88,0.88-45.01c0.06-1.08,0.11-2.18,0.16-3.27
				c0.28-5.91,0.42-11.87,0.42-17.69c0.1-18.76-1.25-36.66-3.97-52.64c-4.77-27.76-13.7-49.49-26.9-59.16
				c-1.75-1.34-12.63,3.92-22.73,8.81c-9.23,4.5-18.45,4.98-27.19,3.26l-8.74,7.66c-10.6,9.66-22.25,22.97-27.4,43.07
				c-4.27,17.04-6.79,47.86-8.16,79.83c-0.67,14.55-1.16,29.1-1.35,42.97v0.48c-0.1,1.44-0.1,2.88-0.1,4.32
				C1877.93,852.7,1878.41,880.94,1879.09,881.42z"/>
			<path class="st12" d="M1961.68,597.09c0,0-11.07,20.2-32.15,25.84c-1.07-8.62-1.07-13.5-1.07-13.5l16.9-13.3L1961.68,597.09z"/>
			<path class="st6" d="M1920.76,608.85c0,0,41.78,6.84,45.71-18.87c3.92-25.71,11.96-42.15-14.56-47.6
				c-26.51-5.46-33.2,3.59-36.63,11.85C1911.85,562.5,1909.99,606.41,1920.76,608.85z"/>
			<path class="st13" d="M1981.65,539.3c0.38-0.44,1.25-0.79,3.2-0.89c0,0-1.56-0.97-3.64-1.03c-0.41-2.71-1.85-7.51-6.51-8.67
				c0,0,2.5,1.34,2.83,4.22c-5.4-5.55-16.96-9.59-48.99-7.06c-42.2,3.33-28.29,30.38-22.83,33.61c5.46,3.22,19.22-5.61,29.4-4.81
				c10.18,0.81,12.12,15.53,15.57,17.55c3.45,2.02,2.1-1.55,6.77-3.67c4.67-2.11,5.12,5.64,3.77,10.67
				c-1.35,5.04,5.07,11.69,5.07,11.69s0,0,6.49-6.99c6.49-6.99,12.6-36.62,9.65-42.93C1982.18,540.43,1981.92,539.87,1981.65,539.3z
				"/>
			<path class="st6" d="M1771.04,669.21c0,0,1.44-5.68-2.5-8.24c-3.94-2.56-7.56-9.5-9.22-8.56c-3.44,1.95,1.88,8.01,0.91,15.58
				C1759.88,670.64,1766.04,677.58,1771.04,669.21z"/>
			<path class="st7" d="M2003.5,804.56c-0.26-13.65-0.11-28.88,0.88-45.01c0.06-1.08,0.11-2.18,0.16-3.27
				c-3.97-19.7-9.98-37.17-18.82-37.74C1985.71,718.54,1959.37,759.99,2003.5,804.56z"/>
			<path class="st6" d="M2038.35,876.03c0,0-2.2,21.37-4.61,25.41c-2.41,4.04-12.67,16.96-17.04,19.49
				c-4.37,2.54,2.67-17.02,1.78-20.83c-0.89-3.81-3.6,6.94-5.52,7.2c-1.93,0.25-1.43-9.42-1.5-12.94
				c-0.07-3.52,9.37-12.21,12.7-19.71C2027.49,867.16,2038.35,876.03,2038.35,876.03z"/>
			<path class="st11" d="M1974.06,626.58c0,0,26.44,12.53,39.11,31.8c19.66,29.88,42.45,138.79,42.88,148.87
				c0.42,10.08-16.64,81.28-16.64,81.28s-17.3-1.14-21.76-9.88c0,0,3.46-73.15,1.27-77.86c-2.19-4.7-72.12-98.13-64.26-118.07
				C1962.53,662.79,1974.06,626.58,1974.06,626.58z"/>
			<polygon class="st8" points="1676.64,661.26 1678.04,673.75 1662.97,670.37 			"/>
		</g>
		<path class="st3" d="M2248.74,1261.15h-76.19c-4.08-3.47,2.83-11.34,10.04-11.87c3.14-0.24,7.1,0.42,11.63,1.38
			c1.05-13.94,7.04-76.6,29.6-74.08c25.37,2.82,0,27.59-7.17,42.26c-5.31,10.86-10.92,26.45-13.48,33.8
			c2.06,0.45,4.19,0.89,6.37,1.29c3.36-10.34,15.88-45.1,31.79-43.08c18.68,2.37,11.17,16.31-2.07,24.59
			c-9.72,6.08-21.65,14.73-27.31,18.91c4.8,0.78,9.82,1.31,14.9,1.2C2239.9,1255.23,2246.27,1259.08,2248.74,1261.15z"/>
		<path class="st3" d="M509.49,1257.53c-4.04-6.35-16.19-22.83-32.37-20.65c-17.63,2.38,19.48,14.01,30.84,20.69
			c-2.52,0.04-4.69-0.17-6.29-0.74c-7.6-2.71-20.6,2.49-24.76,4.31h72.31c-0.5-1.73-1.8-4.56-5.17-6.62
			c-1.19-0.73-3.57-0.83-6.66-0.59c4.3-5.07,7.29-21.28-4.68-17.11c-8.74,3.05-8.72,12.95-7.86,18.81
			c-1.86,0.29-3.75,0.59-5.61,0.85c-3.6-18.37-16.33-72.19-42.14-73.63c-26.17-1.45,22.19,55.82,38.29,74.14
			C513.32,1257.26,511.33,1257.44,509.49,1257.53z"/>
		<path class="st14" d="M2488.13,1266.41H225.5c-1.66,0-3.01-1.36-3.01-3.01v0c0-1.66,1.35-3.01,3.01-3.01h2262.63
			c1.66,0,3.01,1.36,3.01,3.01l0,0C2491.14,1265.06,2489.79,1266.41,2488.13,1266.41z"/>
	</g>
</g>
</svg>
